<?xml version="1.0" encoding="UTF-8" standalone="no"?>
<!-- Created with Inkscape (http://www.inkscape.org/) -->

<svg
   xmlns:dc="http://purl.org/dc/elements/1.1/"
   xmlns:cc="http://creativecommons.org/ns#"
   xmlns:rdf="http://www.w3.org/1999/02/22-rdf-syntax-ns#"
   xmlns:svg="http://www.w3.org/2000/svg"
   xmlns="http://www.w3.org/2000/svg"
   xmlns:sodipodi="http://sodipodi.sourceforge.net/DTD/sodipodi-0.dtd"
   xmlns:inkscape="http://www.inkscape.org/namespaces/inkscape"
   width="120.27166mm"
   height="73.197716mm"
   viewBox="0 0 120.27166 73.197716"
   version="1.1"
   id="svg5136"
   inkscape:version="0.92.2 (5c3e80d, 2017-08-06)"
   sodipodi:docname="crown.svg">
  <defs
     id="defs5130" />
  <sodipodi:namedview
     id="base"
     pagecolor="#ffffff"
     bordercolor="#666666"
     borderopacity="1.0"
     inkscape:pageopacity="0.0"
     inkscape:pageshadow="2"
     inkscape:zoom="0.35"
     inkscape:cx="52.9993"
     inkscape:cy="-98.177625"
     inkscape:document-units="mm"
     inkscape:current-layer="layer1"
     showgrid="false"
     fit-margin-top="0"
     fit-margin-left="0"
     fit-margin-right="0"
     fit-margin-bottom="0"
     inkscape:window-width="1366"
     inkscape:window-height="705"
     inkscape:window-x="-8"
     inkscape:window-y="-8"
     inkscape:window-maximized="1" />
  <metadata
     id="metadata5133">
    <rdf:RDF>
      <cc:Work
         rdf:about="">
        <dc:format>image/svg+xml</dc:format>
        <dc:type
           rdf:resource="http://purl.org/dc/dcmitype/StillImage" />
        <dc:title></dc:title>
      </cc:Work>
    </rdf:RDF>
  </metadata>
  <g
     inkscape:label="Layer 1"
     inkscape:groupmode="layer"
     id="layer1"
     transform="translate(-91.810602,-49.659455)">
    <path
       d="m 106.23822,87.699879 c 10.99007,13.774011 16.18866,22.618871 20.89469,35.157291 21.55863,-6.82595 43.4916,-11.04375 64.88519,-14.6739 1.08443,-8.76983 2.90764,-20.861242 9.41303,-32.596633 -1.09563,-0.527999 -2.53999,-1.227995 -3.7799,-1.707657 -5.32506,11.913625 -8.2149,17.05709 -12.72415,16.97055 -3.64728,-0.06958 -6.03438,-5.717368 -6.38758,-14.603595 -1.82703,0.07172 -2.98376,-0.06729 -4.26052,-0.197649 -2.76223,6.765026 -6.93732,8.733153 -10.0378,8.023089 -4.53163,-1.03885 -6.41182,-7.19441 -8.57498,-14.20381 -1.77941,0.500126 -3.51041,0.752538 -5.2888,0.854844 -0.71748,8.398903 -2.10752,14.898596 -6.22035,16.573037 -3.79265,1.543614 -7.58777,-0.911315 -10.91709,-5.816618 -1.0673,0.734082 -2.23593,1.046911 -3.41005,1.552668 1.03962,10.251295 -0.0444,14.98817 -3.31605,15.492669 -5.3321,0.82244 -10.01683,-6.135287 -17.43872,-13.392189 -1.14016,1.184703 -1.75951,1.835458 -2.83692,2.568016 z m 97.51107,-33.070148 c 4.60197,0 8.33297,3.671084 8.33297,8.19784 0,4.527388 -3.731,8.198484 -8.33297,8.198484 -4.60054,0 -8.33145,-3.671096 -8.33145,-8.198484 0,-4.526756 3.73091,-8.19784 8.33145,-8.19784 z m -26.47113,8.629509 c 2.79882,0 5.06796,2.233078 5.06796,4.985107 0,2.753182 -2.26914,4.986128 -5.06796,4.986128 -2.79812,0 -5.06642,-2.232946 -5.06642,-4.986128 0,-2.752029 2.2683,-4.985107 5.06642,-4.985107 z M 150.36781,49.659455 c 4.60201,0 8.333,3.671021 8.333,8.197775 0,4.5272 -3.73099,8.198475 -8.333,8.198475 -4.60052,0 -8.33142,-3.671275 -8.33142,-8.198475 0,-4.526754 3.7309,-8.197775 8.33142,-8.197775 z m -22.30558,20.487599 c 2.79875,0 5.06789,2.232946 5.06789,4.985106 0,2.752978 -2.26914,4.985926 -5.06789,4.985926 -2.79811,0 -5.06632,-2.232948 -5.06632,-4.985926 0,-2.75216 2.26821,-4.985106 5.06632,-4.985106 z m -27.91998,-1.486251 c 4.60187,0 8.3328,3.671209 8.3328,8.197915 0,4.527243 -3.73093,8.198472 -8.3328,8.198472 -4.600535,0 -8.331648,-3.671229 -8.331648,-8.198472 0,-4.526706 3.731113,-8.197915 8.331648,-8.197915 z"
       style="fill:#f3bf65;fill-rule:evenodd;stroke-width:1.67712724"
       id="path5028"
       inkscape:connector-curvature="0" />
  </g>
</svg>
