<?xml version="1.0" encoding="UTF-8" standalone="no"?>
<!-- Created with Inkscape (http://www.inkscape.org/) -->

<svg
   xmlns:dc="http://purl.org/dc/elements/1.1/"
   xmlns:cc="http://creativecommons.org/ns#"
   xmlns:rdf="http://www.w3.org/1999/02/22-rdf-syntax-ns#"
   xmlns:svg="http://www.w3.org/2000/svg"
   xmlns="http://www.w3.org/2000/svg"
   xmlns:sodipodi="http://sodipodi.sourceforge.net/DTD/sodipodi-0.dtd"
   xmlns:inkscape="http://www.inkscape.org/namespaces/inkscape"
   width="195.40594mm"
   height="63.647293mm"
   viewBox="0 0 195.40594 63.647293"
   version="1.1"
   id="svg5060"
   inkscape:version="0.92.2 (5c3e80d, 2017-08-06)"
   sodipodi:docname="logo.svg">
  <defs
     id="defs5054" />
  <sodipodi:namedview
     id="base"
     pagecolor="#ffffff"
     bordercolor="#666666"
     borderopacity="1.0"
     inkscape:pageopacity="0.0"
     inkscape:pageshadow="2"
     inkscape:zoom="0.35"
     inkscape:cx="367.8425"
     inkscape:cy="-220.36342"
     inkscape:document-units="mm"
     inkscape:current-layer="layer1"
     showgrid="false"
     inkscape:window-width="1366"
     inkscape:window-height="705"
     inkscape:window-x="-8"
     inkscape:window-y="-8"
     inkscape:window-maximized="1"
     fit-margin-top="0"
     fit-margin-left="0"
     fit-margin-right="0"
     fit-margin-bottom="0" />
  <metadata
     id="metadata5057">
    <rdf:RDF>
      <cc:Work
         rdf:about="">
        <dc:format>image/svg+xml</dc:format>
        <dc:type
           rdf:resource="http://purl.org/dc/dcmitype/StillImage" />
        <dc:title></dc:title>
      </cc:Work>
    </rdf:RDF>
  </metadata>
  <g
     inkscape:label="Layer 1"
     inkscape:groupmode="layer"
     id="layer1"
     transform="translate(-8.508338,-5.1655054)">
    <g
       transform="matrix(0.52816596,0,0,0.52816596,-51.598283,-198.98305)"
       id="Layer1001">
      <path
         inkscape:connector-curvature="0"
         d="m 255.8096,410.1415 c 6.8232,8.5518 10.0508,14.0433 12.9727,21.8279 13.385,-4.238 27.0023,-6.8566 40.2849,-9.1105 0.6733,-5.4449 1.8052,-12.952 5.8442,-20.2381 -0.6803,-0.3279 -1.577,-0.7624 -2.3468,-1.0602 -3.3061,7.3967 -5.1004,10.5901 -7.9,10.5364 -2.2645,-0.0434 -3.7465,-3.5497 -3.9658,-9.0668 -1.1343,0.0445 -1.8525,-0.0419 -2.6453,-0.1228 -1.7149,4.2001 -4.307,5.4221 -6.232,4.9811 -2.8135,-0.6449 -3.9809,-4.4667 -5.3239,-8.8185 -1.1048,0.3105 -2.1795,0.4672 -3.2837,0.5307 -0.4454,5.2146 -1.3084,9.2501 -3.8619,10.2896 -2.3548,0.9584 -4.7111,-0.5658 -6.7781,-3.6113 -0.6626,0.4558 -1.3881,0.65 -2.1172,0.964 0.6455,6.3646 -0.0277,9.3056 -2.0587,9.6188 -3.3106,0.5106 -6.2191,-3.8091 -10.8272,-8.3147 -0.7078,0.7355 -1.0924,1.1396 -1.7612,1.5944 z m 60.5411,-20.5321 c 2.8571,0 5.1736,2.2793 5.1736,5.0898 0,2.8108 -2.3165,5.0901 -5.1736,5.0901 -2.8563,0 -5.1728,-2.2793 -5.1728,-5.0901 0,-2.8105 2.3165,-5.0898 5.1728,-5.0898 z m -16.435,5.3578 c 1.7376,0 3.1464,1.3864 3.1464,3.0951 0,1.7093 -1.4088,3.0957 -3.1464,3.0957 -1.7373,0 -3.1455,-1.3864 -3.1455,-3.0957 0,-1.7087 1.4082,-3.0951 3.1455,-3.0951 z m -16.7077,-8.4437 c 2.8572,0 5.1736,2.2792 5.1736,5.0898 0,2.8108 -2.3164,5.0901 -5.1736,5.0901 -2.8563,0 -5.1727,-2.2793 -5.1727,-5.0901 0,-2.8106 2.3164,-5.0898 5.1727,-5.0898 z m -13.8487,12.72 c 1.7376,0 3.1464,1.3864 3.1464,3.0951 0,1.7093 -1.4088,3.0957 -3.1464,3.0957 -1.7373,0 -3.1456,-1.3864 -3.1456,-3.0957 0,-1.7087 1.4083,-3.0951 3.1456,-3.0951 z m -17.3346,-0.9227 c 2.8572,0 5.1736,2.2793 5.1736,5.0898 0,2.8109 -2.3164,5.0901 -5.1736,5.0901 -2.8563,0 -5.1727,-2.2792 -5.1727,-5.0901 0,-2.8105 2.3164,-5.0898 5.1727,-5.0898 z"
         style="fill:#f3bf65;fill-rule:evenodd"
         id="path4956" />
      <path
         inkscape:connector-curvature="0"
         d="m 318.6196,421.2334 c 113.1939,-10.8039 144.8997,22.1514 155.211,37.5058 6.4003,9.5307 2.461,29.2116 -17.7988,36.1545 -22.113,7.5776 -57.0285,8.3248 -95.4524,4.4493 -28.9494,-2.9197 -59.1231,-10.9713 -90.3274,-13.144 -63.1857,-4.3997 -81.9184,19.982 -117.1383,14.343 -39.2392,-6.2824 -35.6446,-33.2529 -24.2388,-40.6879 0.0791,-5.3218 -3.721,-7.4132 -7.2493,-5.6325 -7.9076,4.5423 -11.6317,19.0381 -2.3828,31.824 5.14,7.1056 11.7133,16.6335 29.3213,18.4301 13.6947,1.3974 34.192,-0.5162 71.8769,-8.1295 28.1183,-5.6807 59.6172,-2.6297 91.5463,1.9848 10.4259,1.5069 21.0895,3.0569 32.3751,4.4405 34.3139,3.7088 53.3112,5.9278 87.7218,2.6974 18.339,-2.4658 33.9369,-7.9761 43.85,-17.9614 11.2223,-11.3043 13.2049,-27.3623 -13.1083,-46.1231 -14.7158,-10.4919 -40.0739,-19.6075 -65.9109,-23.2041 -22.7976,-3.1737 -48.7539,-2.3777 -78.2954,3.0531 z m -132.6365,2.2468 c 10.3065,3.221 25.052,-3.6567 23.3677,-9.6483 -1.5443,-3.1473 -2.2918,-5.2104 -6.5138,-5.4505 -3.715,-0.2111 -30.0648,6.283 -29.4647,17.5462 0.2319,4.3577 6.1189,7.0464 14.2549,13.4164 2.1665,1.6965 3.3106,3.5306 2.3247,6.0126 -1.1478,2.8888 -6.5832,4.5516 -11.7655,5.4382 -12.6213,2.1595 -30.134,4.6123 -29.9169,16.1725 0.078,4.1602 9.9261,7.0149 25.2125,2.8344 10.3618,-2.8335 20.77,-8.4149 29.3635,-16.6759 5.2634,-10.806 11.2553,-18.7762 15.6498,-24.0137 1.4902,-0.4051 4.0553,1.6106 3.9541,3.7896 -0.1514,3.2596 -10.3428,17.4288 -13.8552,21.2919 -2.9489,3.2431 -2.95,8.9702 -1.1951,9.551 4.2863,1.4185 15.2005,-5.1026 20.2388,-7.1963 3.4257,-11.082 11.6703,-13.3072 16.1788,-10.0703 6.7422,4.841 -1.8743,8.9841 -11.4982,14.2117 2.0276,3.1437 12.4974,1.3862 21.7451,-4.4951 1.5645,0.5652 0.9193,-0.0984 2.2538,0.8625 0.1616,-2.3147 1.2878,-4.6703 4.4893,-5.6729 1.5641,0.9978 2.2714,2.2232 2.6237,3.3275 -0.237,1.6583 -4.2304,4.0063 -2.5789,5.4375 2.3332,2.0219 6.7665,2.2668 13.9592,-0.036 3.5886,-1.1492 7.8698,-3.697 8.0966,-5.4312 0.1958,-1.5613 -3.9765,-3.0342 -8.8226,-1.387 -3.4985,1.1891 -4.4416,1.3618 -6.9468,6.1923 -0.6602,0.3985 -0.9349,1.0431 -2.0353,1.0732 0.0944,-3.022 -1.209,-7.7015 3.2748,-9.9383 4.0063,-1.999 14.3618,-2.5047 17.4992,2.3967 2.9656,4.6332 -0.54,10.2231 -13.9805,13.0717 -7.2422,1.5349 -12.8676,1.5256 -15.916,-5.6018 -4.9683,3.397 -11.6733,6.2353 -17.8004,6.775 -4.1091,0.3623 -7.7548,-1.343 -9.9493,-4.8469 -6.1583,2.95 -13.6851,6.7416 -19.1931,6.6659 -4.5165,-0.062 -5.6007,-1.9675 -7.1859,-8.8616 -10.1471,7.7054 -25.8644,15.5925 -36.2426,16.5172 -12.7545,1.1364 -18.5102,-1.6796 -21.1229,-9.3887 -3.4549,-10.1945 9.9961,-16.7539 15.4102,-18.4909 4.0272,-1.2921 12.6579,-2.3293 17.9371,-3.3648 4.6579,-0.9138 8.087,-2.0823 7.5254,-3.2459 -1.7203,-2.1745 -14.7058,-6.8071 -15.438,-16.2882 -0.7217,-9.3455 8.5087,-15.9264 19.9956,-19.2818 5.7962,-1.6928 11.6594,-2.5259 15.2487,-1.2685 3.4177,1.1974 5.6245,5.1826 6.8799,8.0813 1.7272,3.9881 1.3853,7.5591 -2.9894,11.156 -2.3953,1.969 -7.1388,4.3617 -12.6862,4.9159 -3.3284,0.3328 -7.0571,0.398 -10.4329,-1.7898 -1.273,-0.8249 -1.7807,-4.2696 0.0468,-4.2928 z m 99.9782,39.7395 c 4.0445,-4.6041 10.7275,-11.6227 16.6731,-12.1423 1.5971,-0.1397 2.8616,1.0066 3.426,2.4806 0.4388,1.1467 0.2741,2.5937 0.6797,3.1326 2.6416,-1.5111 2.7834,-3.5991 6.903,-4.4492 2.0984,-0.4332 2.6855,0.7341 4.1828,3.617 0.703,1.3535 -1.2898,3.92 -1.9653,7.4426 2.8324,0.4887 10.1494,-3.53 15.9324,-8.9215 1.9602,-1.0567 3.6298,2.1974 3.7168,4.2877 0.0533,1.2745 -3.2255,3.3905 -2.4438,5.3354 1.9647,-0.1701 2.9736,0.0351 5.0454,-0.3416 -2.2651,-2.9103 -1.063,-7.7471 2.7726,-11.3114 2.8301,-2.6302 10.6625,-1.8632 14.694,0.1661 1.5287,0.7694 2.3734,4.1562 2.2586,7.6644 2.895,-0.7376 4.8135,-2.9027 8.1062,-6.0188 0.9479,-0.8972 3.051,-1.2102 4.9003,-0.4567 1.4386,0.5859 2.6512,1.8865 3.5206,3.6125 3.2006,-2.27 5.7118,-6.8338 10.1923,-4.4859 4.7656,2.4977 -0.0794,7.9002 7.9126,8.1009 -0.0516,-5.7336 1.5483,-9.8875 9.2137,-9.1488 6.122,0.5896 7.9883,8.2803 2.2714,12.094 6.8108,3.3885 25.8866,5.7274 48.1442,3.4812 0.3558,1.5846 7.107,0.4935 12.5816,-0.1896 -0.5037,0.2041 -1.1191,1.9865 -1.4607,3.0829 -10.9239,2.5351 -48.6961,6.9305 -66.6901,-3.3976 -3.4606,0.2328 -7.7018,0.0718 -10.0063,-2.1325 -2.2091,-2.1126 -1.5948,-5.4822 -3.6148,-6.6296 -2.2141,0.2134 -4.4631,1.9153 -6.2453,3.8245 -3.4018,3.645 -5.7532,8.5408 -7.4956,8.5974 -2.1671,0.0709 -3.6618,-2.599 -2.6207,-5.1397 0.7569,-1.8471 3.5025,-3.3344 3.4643,-5.6897 -2.742,0.4362 -7.4926,5.9663 -23.273,8.1445 -5.5106,1.9298 -17.6273,4.2814 -18.8805,-3.9396 -3.5535,2.8771 -9.2358,6.1846 -12.6309,6.2606 -1.3924,0.0312 -2.2002,-0.4533 -3.0787,-1.1665 -1.9324,-1.5681 -1.8006,-5.1055 -1.0738,-9.1179 -4.3319,1.2178 -7.3998,9.913 -10.8405,9.4252 -1.8989,-0.269 -2.8837,-2.4191 -2.4245,-4.8719 0.6713,-3.5856 3.9215,-7.6022 2.0197,-8.0229 -2.4018,0.2931 -10.3756,9.3127 -10.9808,11.5758 -2.8457,0.0468 -3.8398,-1.6534 -2.886,-4.7522 z m 66.9348,-7.0028 c -0.0867,-1.7022 -4.9292,-1.6509 -8.3163,-0.5918 -2.0248,0.6332 -5.1945,4.1119 -4.4087,5.4776 1.5114,2.6261 9.6381,1.8128 12.725,-4.8858 z m 49.5059,0.8422 c -2.8851,-1.9525 -6.4902,0.8722 -6.37,2.7635 0.0944,1.4817 4.7342,0.2863 6.37,-2.7635 z m -168.6061,-3.6289 c 2.5665,-0.542 8.9011,-4.7242 7.8982,-5.4995 -1.5645,-1.2095 -7.9949,3.4095 -7.8982,5.4995 z"
         style="fill:#09120a;fill-rule:evenodd"
         id="path4958" />
    </g>
  </g>
</svg>
